<?xml version="1.0" encoding="UTF-8" standalone="no"?><!-- Generator: Gravit.io --><svg xmlns="http://www.w3.org/2000/svg" xmlns:xlink="http://www.w3.org/1999/xlink" style="isolation:isolate" viewBox="0 0 1280 800" width="1280pt" height="800pt"><defs><clipPath id="_clipPath_1UMBPdSHiD2ofiu4CIDIPvxQB0UFAgKG"><rect width="1280" height="800"/></clipPath></defs><g clip-path="url(#_clipPath_1UMBPdSHiD2ofiu4CIDIPvxQB0UFAgKG)"><rect x="0" y="0" width="1280" height="800" transform="matrix(1,0,0,1,0,0)" fill="rgb(236,185,234)"/><path d=" M 980.366 346.702 L 980.366 346.702 L 980.366 353.142 L 962.378 353.142 L 962.378 346.702 L 962.378 346.702 Q 962.378 343.148 959.824 340.594 L 959.824 340.594 L 959.824 340.594 Q 957.27 338.04 953.717 338.04 L 953.717 338.04 L 847.12 338.04 L 847.12 338.04 Q 843.566 338.04 841.012 340.594 L 841.012 340.594 L 841.012 340.594 Q 838.459 343.148 838.459 346.702 L 838.459 346.702 L 838.459 453.298 L 838.459 453.298 Q 838.459 456.852 841.012 459.406 L 841.012 459.406 L 841.012 459.406 Q 843.566 461.96 847.12 461.96 L 847.12 461.96 L 953.717 461.96 L 953.717 461.96 Q 957.27 461.96 959.824 459.406 L 959.824 459.406 L 959.824 459.406 Q 962.378 456.852 962.378 453.298 L 962.378 453.298 L 962.378 413.769 L 922.848 413.769 L 922.848 395.558 L 980.366 395.558 L 980.366 453.298 L 980.366 453.298 Q 980.366 464.402 972.593 472.175 L 972.593 472.175 L 972.593 472.175 Q 964.82 479.948 953.717 479.948 L 953.717 479.948 L 847.12 479.948 L 847.12 479.948 Q 836.016 479.948 828.243 472.175 L 828.243 472.175 L 828.243 472.175 Q 820.47 464.402 820.47 453.298 L 820.47 453.298 L 820.47 346.702 L 820.47 346.702 Q 820.47 335.598 828.243 327.825 L 828.243 327.825 L 828.243 327.825 Q 836.016 320.052 847.12 320.052 L 847.12 320.052 L 953.717 320.052 L 953.717 320.052 Q 964.82 320.052 972.593 327.825 L 972.593 327.825 L 972.593 327.825 Q 980.366 335.598 980.366 346.702 Z  M 1023.005 479.948 L 1005.016 479.948 L 1005.016 320.052 L 1023.005 320.052 L 1023.005 479.948 Z  M 1054.095 479.948 L 1054.095 320.052 L 1200 320.052 L 1200 338.04 L 1072.084 338.04 L 1072.084 390.895 L 1174.905 390.895 L 1174.905 409.105 L 1072.084 409.105 L 1072.084 479.948 L 1054.095 479.948 Z " fill="rgb(0,0,0)"/><path d=" M 632.608 330.676 L 632.608 368.97 L 539.53 368.97 L 539.53 431.022 L 632.608 431.022 L 632.608 469.324 L 740.47 399.996 L 632.608 330.676 Z " fill="rgb(0,0,0)"/><path d=" M 148.004 377.87 L 148.004 377.87 L 148.004 380.452 L 140.535 380.452 L 140.535 377.87 L 140.535 377.87 Q 140.535 376.395 139.475 375.334 L 139.475 375.334 L 139.475 375.334 Q 138.415 374.274 136.939 374.274 L 136.939 374.274 L 92.679 374.274 L 92.679 374.274 Q 91.204 374.274 90.144 375.334 L 90.144 375.334 L 90.144 375.334 Q 89.083 376.395 89.083 377.87 L 89.083 377.87 L 89.083 392.716 L 89.083 392.716 Q 89.083 394.191 90.144 395.205 L 90.144 395.205 L 90.144 395.205 Q 91.204 396.219 92.679 396.219 L 92.679 396.219 L 136.939 396.219 L 136.939 396.219 Q 141.55 396.219 144.777 399.447 L 144.777 399.447 L 144.777 399.447 Q 148.004 402.674 148.004 407.284 L 148.004 407.284 L 148.004 422.13 L 148.004 422.13 Q 148.004 426.74 144.777 429.968 L 144.777 429.968 L 144.777 429.968 Q 141.55 433.195 136.939 433.195 L 136.939 433.195 L 92.679 433.195 L 92.679 433.195 Q 88.069 433.195 84.842 429.968 L 84.842 429.968 L 84.842 429.968 Q 81.615 426.74 81.615 422.13 L 81.615 422.13 L 81.615 419.548 L 89.083 419.548 L 89.083 422.13 L 89.083 422.13 Q 89.083 423.605 90.144 424.666 L 90.144 424.666 L 90.144 424.666 Q 91.204 425.726 92.679 425.726 L 92.679 425.726 L 136.939 425.726 L 136.939 425.726 Q 138.415 425.726 139.475 424.666 L 139.475 424.666 L 139.475 424.666 Q 140.535 423.605 140.535 422.13 L 140.535 422.13 L 140.535 407.284 L 140.535 407.284 Q 140.535 405.809 139.475 404.795 L 139.475 404.795 L 139.475 404.795 Q 138.415 403.781 136.939 403.781 L 136.939 403.781 L 92.679 403.781 L 92.679 403.781 Q 88.069 403.781 84.842 400.553 L 84.842 400.553 L 84.842 400.553 Q 81.615 397.326 81.615 392.716 L 81.615 392.716 L 81.615 377.87 L 81.615 377.87 Q 81.615 373.26 84.842 370.032 L 84.842 370.032 L 84.842 370.032 Q 88.069 366.805 92.679 366.805 L 92.679 366.805 L 136.939 366.805 L 136.939 366.805 Q 141.55 366.805 144.777 370.032 L 144.777 370.032 L 144.777 370.032 Q 148.004 373.26 148.004 377.87 Z  M 157.871 433.195 L 157.871 366.897 L 213.195 366.897 L 213.195 366.897 Q 217.806 366.897 221.033 370.125 L 221.033 370.125 L 221.033 370.125 Q 224.26 373.352 224.26 377.962 L 224.26 377.962 L 224.26 397.418 L 224.26 397.418 Q 224.26 402.029 221.033 405.256 L 221.033 405.256 L 221.033 405.256 Q 217.806 408.483 213.195 408.483 L 213.195 408.483 L 168.936 408.483 L 168.936 408.483 Q 168.106 408.483 165.339 408.114 L 165.339 408.114 L 165.339 433.195 L 157.871 433.195 Z  M 216.791 397.418 L 216.791 397.418 L 216.791 377.962 L 216.791 377.962 Q 216.791 376.487 215.731 375.427 L 215.731 375.427 L 215.731 375.427 Q 214.671 374.366 213.195 374.366 L 213.195 374.366 L 168.936 374.366 L 168.936 374.366 Q 167.46 374.366 166.4 375.427 L 166.4 375.427 L 166.4 375.427 Q 165.339 376.487 165.339 377.962 L 165.339 377.962 L 165.339 397.418 L 165.339 397.418 Q 165.339 398.894 166.4 399.908 L 166.4 399.908 L 166.4 399.908 Q 167.46 400.922 168.936 400.922 L 168.936 400.922 L 213.195 400.922 L 213.195 400.922 Q 214.671 400.922 215.731 399.908 L 215.731 399.908 L 215.731 399.908 Q 216.791 398.894 216.791 397.418 Z  M 297.105 377.962 L 297.105 377.962 L 297.105 397.418 L 297.105 397.418 Q 297.105 402.029 293.877 405.256 L 293.877 405.256 L 293.877 405.256 Q 290.65 408.483 286.04 408.483 L 286.04 408.483 L 275.897 408.483 L 296.736 433.195 L 286.87 433.195 L 266.123 408.483 L 241.78 408.483 L 241.78 408.483 Q 240.95 408.483 238.184 408.114 L 238.184 408.114 L 238.184 433.195 L 230.715 433.195 L 230.715 366.897 L 286.04 366.897 L 286.04 366.897 Q 290.65 366.897 293.877 370.125 L 293.877 370.125 L 293.877 370.125 Q 297.105 373.352 297.105 377.962 Z  M 241.78 400.922 L 241.78 400.922 L 286.04 400.922 L 286.04 400.922 Q 287.515 400.922 288.529 399.908 L 288.529 399.908 L 288.529 399.908 Q 289.544 398.894 289.544 397.418 L 289.544 397.418 L 289.544 377.962 L 289.544 377.962 Q 289.544 376.487 288.529 375.427 L 288.529 375.427 L 288.529 375.427 Q 287.515 374.366 286.04 374.366 L 286.04 374.366 L 241.78 374.366 L 241.78 374.366 Q 240.305 374.366 239.244 375.427 L 239.244 375.427 L 239.244 375.427 Q 238.184 376.487 238.184 377.962 L 238.184 377.962 L 238.184 397.418 L 238.184 397.418 Q 238.184 398.894 239.244 399.908 L 239.244 399.908 L 239.244 399.908 Q 240.305 400.922 241.78 400.922 Z  M 314.44 433.195 L 306.971 433.195 L 306.971 366.805 L 314.44 366.805 L 314.44 433.195 Z  M 323.845 374.274 L 323.845 366.805 L 390.235 366.805 L 390.235 374.274 L 360.82 374.274 L 360.82 433.195 L 353.352 433.195 L 353.352 374.274 L 323.845 374.274 Z  M 397.335 366.805 L 457.915 366.805 L 457.915 374.274 L 404.804 374.274 L 404.804 396.219 L 447.496 396.219 L 447.496 403.781 L 404.804 403.781 L 404.804 425.726 L 457.915 425.726 L 457.915 433.195 L 397.335 433.195 L 397.335 366.805 Z " fill="rgb(0,0,0)"/></g></svg>