<?xml version="1.0" encoding="UTF-8" standalone="no"?><!-- Generator: Gravit.io --><svg xmlns="http://www.w3.org/2000/svg" xmlns:xlink="http://www.w3.org/1999/xlink" style="isolation:isolate" viewBox="0 0 512 512" width="512pt" height="512pt"><defs><clipPath id="_clipPath_oVg9w8WhapdiEgtAPkWkIiWbROQBvtnp"><rect width="512" height="512"/></clipPath></defs><g clip-path="url(#_clipPath_oVg9w8WhapdiEgtAPkWkIiWbROQBvtnp)"><circle vector-effect="non-scaling-stroke" cx="255.99999999999994" cy="256.00000000000006" r="213.65933144732531" fill="rgb(235,235,235)"/><path d=" M 255.669 0 C 249.045 0 240.256 2.955 235.339 16.33 C 233.547 19.082 230.166 22.666 228 22.997 C 227.627 23.04 227.008 23.253 226.667 23.328 C 215.787 24.671 204.673 26.666 193.676 29.663 C 193.089 29.749 192.588 30.165 192.001 30.335 C 190.721 30.751 186.209 29.045 182.668 26.666 C 173.09 16.288 163.788 17.173 157.676 19.669 C 151.543 22.208 144.418 28.17 145.005 42.335 C 144.418 45.535 142.871 50.378 141.336 51.327 C 130.969 57.135 121.053 63.713 111.672 71.007 C 111.299 71.263 110.669 71.38 110.339 71.679 C 109.251 72.553 104.504 72.852 100.334 72.009 C 87.502 66.089 79.342 70.345 74.67 75.006 C 69.966 79.721 65.668 88.094 71.673 101.011 C 72.345 104.211 72.761 109.224 71.673 110.675 C 63.976 120.33 57.064 130.584 51.001 141.341 C 50.095 142.802 45.839 144.882 42.01 145.672 C 27.887 145.256 21.85 152.253 19.343 158.343 C 16.794 164.466 15.887 173.714 26.341 183.346 C 28.175 186.012 30.383 190.673 30.01 192.337 C 26.59 204.234 24.136 216.387 22.671 228.678 C 22.383 230.342 19.258 233.755 16.005 236.006 C 2.757 240.912 0.005 249.712 0.005 256.336 C 0.005 262.96 2.672 271.76 16.005 276.677 C 18.671 278.426 22.383 281.551 22.671 283.002 C 24.148 295.4 26.602 307.662 30.01 319.673 C 30.426 321.209 28.549 325.999 26.341 329.337 C 15.962 338.916 16.794 347.875 19.343 354.009 C 21.882 360.131 27.877 367.171 42.01 366.67 C 45.593 367.342 49.924 369.251 50.671 370.339 C 56.591 380.92 63.758 391.245 71.673 401.336 C 72.548 402.424 72.846 407.17 72.004 411.341 C 66.094 424.172 70.34 432.29 75.012 437.004 C 79.673 441.665 87.758 445.964 100.675 440.001 C 103.875 439.33 109.251 439.372 111.011 440.673 C 111.213 440.833 111.459 440.876 111.672 440.993 C 121.04 448.301 130.958 454.877 141.336 460.662 C 142.722 461.409 144.546 466.081 145.335 470.006 C 144.802 484.129 151.917 490.166 158.007 492.662 C 164.13 495.168 173.335 495.83 183.009 485.334 C 185.708 483.457 190.508 481.494 192.673 481.995 C 193.046 482.081 193.292 481.963 193.665 481.995 C 204.716 485.003 215.798 487.329 226.667 488.672 C 227.216 488.824 227.776 488.931 228.342 488.992 C 229.75 489.12 233.291 492.459 235.67 496 C 240.576 509.248 249.376 512 256 512 C 262.624 512 271.423 509.003 276.341 495.67 C 278.122 492.918 281.834 489.334 283.999 489.003 C 284.501 488.918 284.831 488.79 285.333 488.662 C 295.914 487.339 306.708 485.249 317.332 482.337 C 318.121 482.251 318.921 481.878 319.668 481.665 C 321.086 481.291 325.46 482.955 329.001 485.334 C 338.622 495.712 347.881 494.827 354.003 492.331 C 360.126 489.792 367.251 483.83 366.664 469.665 C 367.336 466.006 369.245 461.377 371.005 460.332 C 371.486 460.058 371.931 459.725 372.328 459.34 C 381.501 454.081 390.461 448.247 398.994 441.665 C 399.794 441.292 400.626 440.919 401.341 440.332 C 402.407 439.415 407.165 438.839 411.335 439.671 C 424.124 445.537 432.327 441.665 436.999 437.004 C 441.703 432.332 445.958 423.917 439.996 410.999 C 439.249 407.341 439.121 402.626 440.337 401.005 C 440.785 400.376 441.372 399.714 441.66 399 C 448.139 390.634 454.044 381.839 459.334 372.675 C 459.91 372.035 460.252 371.416 460.668 370.67 C 461.329 369.422 465.499 367.171 469.659 366.339 C 483.792 367.043 489.787 359.758 492.336 353.667 C 494.875 347.545 495.835 338.297 485.328 328.676 C 483.451 325.967 481.126 321.465 481.67 319.343 C 481.872 318.543 481.99 317.508 481.99 316.676 C 484.752 306.426 487.035 296.09 488.326 286.01 C 488.667 285.125 488.87 284.303 488.998 283.343 C 489.126 281.925 492.123 278.384 495.664 276.005 C 508.912 271.098 511.994 262.299 511.994 255.675 C 512.037 249.093 508.955 240.251 495.664 235.334 C 492.539 233.307 489.328 230.001 488.998 228.006 C 488.857 227.206 488.632 226.423 488.326 225.67 C 486.899 215.319 484.786 205.075 482 195.004 C 482 194.044 481.958 193.297 481.659 192.337 C 481.243 191.004 482.96 186.215 485.328 182.674 C 495.707 173.095 494.875 164.135 492.336 158.002 C 489.787 151.88 484.08 144.84 469.659 145.341 C 466.001 144.637 461.372 142.76 460.337 141.01 C 459.996 140.424 459.793 139.837 459.334 139.346 C 454.04 130.178 448.135 121.376 441.66 113 C 441.287 112.136 440.625 111.422 439.996 110.675 C 439.121 109.587 438.876 104.84 439.665 100.67 C 445.585 87.838 441.329 79.678 436.668 75.006 C 431.996 70.303 423.954 66.047 410.994 72.009 C 407.367 72.798 402.333 72.542 400.669 71.337 C 400.151 70.943 399.589 70.61 398.994 70.345 C 390.516 63.757 381.607 57.742 372.328 52.34 C 371.752 51.839 371.005 51.722 370.333 51.348 C 369.085 50.676 367.165 46.175 366.333 42.015 C 366.867 27.882 359.795 21.888 353.662 19.349 C 347.539 16.8 338.334 16.224 328.67 26.677 C 325.577 28.81 320.958 30.463 318.996 30.015 C 318.455 29.842 317.897 29.728 317.332 29.674 C 306.824 26.827 296.132 24.71 285.333 23.338 C 284.671 23.136 284.053 23.093 283.338 23.018 C 281.919 22.848 278.378 19.552 275.999 16.01 C 271.093 2.752 262.293 0 255.669 0 Z  M 255.669 63.999 C 306.582 63.99 355.402 84.261 391.336 120.328 C 466.161 195.164 466.161 316.783 391.336 391.661 C 389.245 393.741 386.749 394.989 383.997 394.989 C 381.108 394.92 378.361 393.726 376.339 391.661 C 374.336 389.678 373.209 386.976 373.209 384.157 C 373.209 381.339 374.336 378.637 376.339 376.653 C 442.876 310.116 442.876 201.873 376.339 135.336 C 309.791 68.788 201.548 68.788 135 135.336 C 133.017 137.336 130.317 138.46 127.501 138.46 C 124.685 138.46 121.985 137.336 120.003 135.336 C 118 133.353 116.873 130.651 116.873 127.832 C 116.873 125.013 118 122.311 120.003 120.328 C 155.933 84.256 204.755 63.985 255.669 63.999 Z  M 79.001 198.663 C 80.455 198.482 81.932 198.594 83.342 198.993 C 86.084 199.699 88.434 201.465 89.872 203.904 C 91.311 206.343 91.721 209.254 91.011 211.996 C 75.332 270.789 92.174 333.828 135 376.664 C 177.836 419.49 240.875 436.322 299.668 420.653 C 302.411 419.946 305.322 420.359 307.76 421.799 C 310.199 423.24 311.965 425.59 312.671 428.332 C 314.164 434.028 311.039 439.778 305.332 441.324 C 289.121 445.572 272.428 447.702 255.669 447.66 C 204.811 447.721 156.011 427.578 120.003 391.661 C 71.79 343.449 52.719 272.453 70.34 206.332 C 71.388 202.241 74.824 199.203 79.011 198.663 L 79.001 198.663 Z " fill="rgb(0,0,0)"/><path d=" M 322.182 128 L 272.086 133.566 C 269.768 133.802 267.851 135.475 267.305 137.741 L 253.15 194.75 L 200.338 194.75 C 188.054 194.75 178.073 204.73 178.073 217.014 C 178.073 220.089 180.565 222.581 183.64 222.581 L 328.36 222.581 C 331.435 222.581 333.927 220.089 333.927 217.014 C 333.927 204.73 323.946 194.75 311.662 194.75 L 264.628 194.75 L 277.152 144.175 L 323.407 139.043 L 322.182 128 Z  M 190.364 233.713 L 205.932 379.018 C 206.255 381.846 208.626 384 211.476 384 L 300.535 384 C 303.385 384 305.756 381.846 306.079 379.018 L 321.642 233.713 L 190.364 233.713 Z " fill="rgb(235,235,235)"/></g></svg>